<?xml version="1.0" encoding="utf-8"?>
<!-- Generator: Adobe Illustrator 16.0.0, SVG Export Plug-In . SVG Version: 6.00 Build 0)  -->
<!DOCTYPE svg PUBLIC "-//W3C//DTD SVG 1.1//EN" "http://www.w3.org/Graphics/SVG/1.1/DTD/svg11.dtd">
<svg version="1.1" id="Слой_1" xmlns="http://www.w3.org/2000/svg" xmlns:xlink="http://www.w3.org/1999/xlink" x="0px" y="0px"
	 width="200px" height="165px" viewBox="0 0 200 165" enable-background="new 0 0 200 165" xml:space="preserve">
<g id="Шар_11">
</g>
<g id="contakt">
</g>
<g id="dialnict">
</g>
<g id="photo">
</g>
<g id="manegers">
</g>
<g id="istoria">
</g>
<g id="cinosti">
</g>
<g id="strategia">
	<path fill="#E32C26" d="M88.725,20h21.877l-3,6h-6c-2.035,0-4.587,1.887-5.764,3.921L82.602,53h-16l16.292-29.302
		C84.066,21.664,86.69,20,88.725,20z"/>
	<path fill="#1D1C1A" d="M130.814,57.859l-11.051,19.137l-3.592-6.223l2.779-4.813c1.018-1.762,0.889-4.866-0.285-6.902
		L105.314,35.93l8.27-14.324l16.943,29.35C131.701,52.991,131.832,56.096,130.814,57.859z"/>
	<path fill="#1D1C1A" d="M77.128,75.434L66.602,56h7l2.443,5.111C77.063,62.872,79.249,65,81.602,65h28l7,13h-33
		C81.249,78,78.146,77.195,77.128,75.434z"/>
	<path fill="#1D1C1A" d="M55.118,133.119c-0.784,0-1.497-0.104-2.147-0.309c-0.646-0.207-1.205-0.52-1.67-0.938
		c-0.467-0.425-0.824-0.95-1.07-1.576c-0.248-0.627-0.371-1.347-0.371-2.161c0-0.771,0.123-1.463,0.373-2.074
		c0.252-0.609,0.608-1.131,1.074-1.564c0.453-0.42,1.008-0.744,1.664-0.973c0.66-0.228,1.377-0.34,2.161-0.34
		c0.371,0,0.728,0.023,1.07,0.071c0.343,0.046,0.668,0.113,0.979,0.193c0.251,0.063,0.526,0.153,0.83,0.267
		c0.304,0.113,0.552,0.21,0.738,0.292v1.537h-0.127c-0.181-0.142-0.371-0.274-0.565-0.401c-0.197-0.127-0.474-0.264-0.83-0.408
		c-0.297-0.129-0.64-0.236-1.024-0.322c-0.385-0.084-0.802-0.127-1.247-0.127c-1.066,0-1.925,0.347-2.582,1.042
		c-0.656,0.694-0.984,1.616-0.984,2.771c0,0.643,0.088,1.204,0.262,1.685c0.172,0.479,0.423,0.888,0.748,1.223
		c0.317,0.329,0.699,0.581,1.147,0.755c0.448,0.176,0.954,0.26,1.513,0.26c0.416,0,0.829-0.025,1.238-0.076
		c0.414-0.053,0.76-0.131,1.043-0.233v-2.476h-2.558v-1.117h4.013v4.179c-0.188,0.072-0.438,0.164-0.756,0.274
		c-0.314,0.113-0.607,0.201-0.88,0.266c-0.36,0.096-0.688,0.165-0.978,0.213C55.888,133.096,55.535,133.119,55.118,133.119z"/>
	<path fill="#1D1C1A" d="M82.137,132.932h-1.91l-3.504-3.807h-1.681v3.807h-1.47L73.5,123l2.926,0.355
		c0.633,0,1.162,0.031,1.594,0.093c0.428,0.059,0.833,0.198,1.222,0.417c0.386,0.215,0.688,0.49,0.915,0.83
		c0.226,0.338,0.339,0.759,0.339,1.261c0,0.702-0.205,1.29-0.618,1.761c-0.41,0.473-0.968,0.821-1.678,1.049L82.137,132.932z
		 M78.958,126.051c0-0.277-0.057-0.523-0.174-0.74c-0.113-0.218-0.289-0.395-0.525-0.533c-0.209-0.118-0.453-0.202-0.728-0.252
		c-0.279-0.049-0.622-0.073-1.032-0.073h-1.458v3.612h1.292c0.421,0,0.803-0.032,1.138-0.096c0.335-0.063,0.625-0.197,0.862-0.398
		c0.211-0.18,0.37-0.396,0.469-0.645C78.904,126.678,78.958,126.386,78.958,126.051z"/>
	<path fill="#1D1C1A" d="M103.952,124.457c0.42,0.421,0.748,0.941,0.979,1.563c0.234,0.623,0.35,1.33,0.35,2.129
		c0,0.776-0.111,1.477-0.338,2.103c-0.23,0.626-0.559,1.151-0.988,1.575c-0.453,0.445-0.98,0.773-1.578,0.988
		c-0.604,0.213-1.268,0.316-1.991,0.316c-0.744,0-1.419-0.109-2.02-0.326c-0.597-0.22-1.112-0.545-1.543-0.979
		c-0.424-0.424-0.753-0.948-0.979-1.569c-0.229-0.62-0.343-1.325-0.343-2.108c0-0.806,0.113-1.514,0.346-2.121
		c0.229-0.61,0.559-1.133,0.982-1.57c0.427-0.425,0.939-0.747,1.54-0.968c0.604-0.222,1.275-0.332,2.016-0.332
		c0.756,0,1.436,0.114,2.039,0.342S103.536,124.047,103.952,124.457z M103.751,128.148c0-0.635-0.078-1.196-0.236-1.685
		c-0.158-0.489-0.383-0.896-0.668-1.217c-0.293-0.33-0.645-0.577-1.061-0.743c-0.412-0.164-0.879-0.247-1.391-0.247
		c-0.537,0-1.004,0.081-1.402,0.242c-0.399,0.16-0.752,0.41-1.057,0.748c-0.293,0.328-0.519,0.735-0.674,1.229
		c-0.155,0.491-0.233,1.049-0.233,1.67c0,1.258,0.304,2.218,0.915,2.885c0.607,0.667,1.423,1,2.451,1c1.024,0,1.84-0.332,2.448-1
		C103.446,130.365,103.751,129.404,103.751,128.148z"/>
	<path fill="#1D1C1A" d="M123.496,133.131c-0.648,0-1.215-0.072-1.701-0.223c-0.484-0.145-0.896-0.366-1.24-0.657
		c-0.385-0.335-0.656-0.733-0.814-1.2c-0.16-0.465-0.242-1.039-0.242-1.719v-5.977h1.475v5.977c0,0.439,0.031,0.813,0.096,1.115
		c0.066,0.302,0.189,0.574,0.377,0.813c0.199,0.26,0.471,0.453,0.805,0.586c0.344,0.133,0.758,0.199,1.248,0.199
		c0.459,0,0.869-0.066,1.227-0.199c0.355-0.133,0.633-0.326,0.83-0.586c0.184-0.24,0.311-0.513,0.377-0.808
		c0.063-0.297,0.1-0.659,0.1-1.088v-6.007h1.471v5.976c0,0.664-0.078,1.233-0.234,1.71c-0.154,0.477-0.432,0.877-0.818,1.209
		c-0.354,0.295-0.764,0.518-1.229,0.662C124.746,133.061,124.174,133.131,123.496,133.131z"/>
	<path fill="#1D1C1A" d="M149.52,126.246c0,0.416-0.084,0.811-0.258,1.179c-0.17,0.372-0.406,0.687-0.711,0.947
		c-0.377,0.327-0.824,0.573-1.342,0.741c-0.516,0.166-1.164,0.25-1.953,0.25h-1.246v3.568h-1.473v-9.576h2.779
		c0.654,0,1.209,0.049,1.67,0.144c0.461,0.094,0.867,0.246,1.219,0.457c0.41,0.243,0.732,0.554,0.965,0.929
		C149.402,125.261,149.52,125.712,149.52,126.246z M147.99,126.277c0-0.332-0.068-0.617-0.199-0.861
		c-0.129-0.245-0.33-0.443-0.596-0.6c-0.232-0.131-0.506-0.227-0.816-0.281c-0.307-0.055-0.691-0.083-1.154-0.083h-1.215v3.825h1
		c0.594,0,1.076-0.043,1.441-0.127c0.367-0.084,0.67-0.232,0.914-0.446c0.219-0.192,0.377-0.402,0.473-0.628
		C147.941,126.848,147.99,126.582,147.99,126.277z"/>
	<path fill="#1D1C1A" d="M31.558,105h3v1c-0.354,0.242-0.333,0.895-0.796,1.076c-0.544,0.212-1.092,0.32-1.632,0.32
		c-1.073,0-1.917-0.358-2.575-1.099c-0.663-0.743-0.998-1.914-0.998-3.475c0-1.433,0.328-2.511,0.979-3.208
		c0.646-0.695,1.504-1.032,2.627-1.032c0.724,0,1.303,0.166,1.773,0.509c0.462,0.338,0.77,0.79,0.939,1.383l0.134,0.469l3.899-0.729
		l-0.117-0.538c-0.314-1.441-1.034-2.591-2.137-3.414c-1.091-0.814-2.603-1.226-4.492-1.226c-1.451-0.001-2.691,0.259-3.68,0.772
		c-1.3,0.668-2.303,1.642-2.978,2.894c-0.668,1.235-1.004,2.661-1.004,4.239c0,1.451,0.301,2.813,0.894,4.052
		c0.608,1.267,1.526,2.255,2.734,2.937c1.193,0.672,2.604,1.014,4.188,1.014c1.24,0,2.483-0.237,3.691-0.705
		c1.215-0.471,0.892-0.604,1.549-1.238l1-1v-6h-7v3H31.558z"/>
	<path fill="#1D1C1A" d="M58.986,95.035c-1.236,0-2.346,0.206-3.299,0.609c-0.738,0.309-1.42,0.782-2.034,1.414
		c-0.604,0.623-1.092,1.336-1.44,2.123c-0.467,1.055-0.701,2.367-0.701,3.896c0,2.417,0.686,4.354,2.039,5.752
		c1.359,1.402,3.199,2.113,5.475,2.113c2.25,0,4.076-0.715,5.436-2.125c1.353-1.405,2.038-3.36,2.038-5.809
		c0-2.468-0.689-4.434-2.053-5.844C63.077,95.753,61.241,95.036,58.986,95.035z M62.435,102.941c0,1.52-0.328,2.658-0.975,3.387
		c-0.639,0.719-1.441,1.068-2.444,1.068s-1.808-0.354-2.458-1.08c-0.657-0.732-0.989-1.855-0.989-3.338
		c0-1.506,0.321-2.633,0.961-3.348c0.629-0.706,1.444-1.049,2.486-1.049c1.046,0,1.854,0.339,2.472,1.033
		C62.116,100.322,62.435,101.438,62.435,102.941z"/>
	<path fill="#1D1C1A" d="M78.5,95l-6,16h4.231l1.183-3.258h4.994L84.162,111h4.31L82.5,95H78.5z M82.5,105h-4l2-5L82.5,105z"/>
	<path fill="#1D1C1A" d="M125.5,95l-6,16h4.23l1.184-3.258h4.994l1.254,3.258h4.311L129.5,95H125.5z M129.5,105h-4l2-5L129.5,105z"
		/>
	<polygon fill="#1D1C1A" points="93.5,95 89.5,95 89.5,111 99.5,111 99.5,107 93.5,107 	"/>
	<polygon fill="#1D1C1A" points="105.5,95 101.5,95 101.5,111 111.5,111 111.5,107 105.5,107 	"/>
	<polygon fill="#1D1C1A" points="145.5,103 141.156,95 137.5,95 137.5,111 141.5,111 141.5,103 146.5,111 149.5,111 149.5,95 
		145.5,95 	"/>
	<polygon fill="#1D1C1A" points="49.5,104 49.5,101 40.5,101 40.5,111 49.5,111 49.5,107 44.5,107 44.5,104 	"/>
	<polygon fill="#1D1C1A" points="174.5,107 169.5,107 169.5,104 174.5,104 174.5,101 169.5,101 169.5,99 174.5,99 174.5,95 
		165.5,95 165.5,111 174.5,111 	"/>
	<polygon fill="#1D1C1A" points="117.492,110.954 117.492,95.081 113.521,95.081 113.521,111 117.477,111 117.492,111 117.5,111 
		117.5,110.939 	"/>
	<rect x="24.5" y="116" fill="#1D1C1A" width="150" height="1"/>
	<rect x="40.5" y="95" fill="#E32C26" width="9" height="4"/>
	<polygon fill="#1D1C1A" points="161.5,109 163.5,109 163.5,109 	"/>
	<path fill="#1D1C1A" d="M163.5,106c-0.238-0.204-0.514-0.111-0.721,0.129c-0.271,0.316-0.578,0.584-0.912,0.801
		c-0.063,0.041-0.131,0.081-0.199,0.119l0.004,0.002l-0.004,0.001c-0.063,0.035-0.135,0.072-0.209,0.108v0.001l-0.002,0.001
		c-0.316,0.154-0.656,0.258-1.002,0.309c-0.064,0.008-0.143,0.018-0.227,0.022c-0.09,0.006-0.166,0.012-0.225,0.013l-0.158-0.001
		v0.001l-0.002-0.001c-0.752,0.009-1.438-0.149-2.061-0.474v0.001c-0.127-0.065-0.258-0.142-0.389-0.228
		c-0.129-0.087-0.256-0.18-0.371-0.275c-0.064-0.051-0.135-0.112-0.213-0.184c-0.346-0.313-0.615-0.671-0.816-1.07l-0.016-0.034
		c-0.043-0.084-0.078-0.164-0.107-0.236l-0.008-0.017c-0.213-0.535-0.324-1.145-0.326-1.827h0.002v-0.011h-0.002
		c0-0.877,0.205-1.668,0.609-2.368v-0.001c0.068-0.125,0.16-0.26,0.26-0.4c0.096-0.13,0.193-0.251,0.293-0.361l0.023-0.029
		c0.389-0.436,0.832-0.76,1.324-0.975c0.496-0.215,1.063-0.322,1.693-0.322c0.27,0,0.541,0.031,0.803,0.087
		c0.268,0.06,0.539,0.151,0.811,0.271c0.373,0.167,0.719,0.39,1.033,0.667l0.025,0.025c0.061,0.051,0.121,0.111,0.188,0.178
		c0.066,0.067,0.129,0.131,0.184,0.189l0,0c0.104,0.123,0.26,0.199,0.434,0.199c0.316,0,0.281,0.002,0.281-0.313v-4
		c0.012-0.218,0.188,0.058-0.021-0.049c-0.434-0.222-0.865-0.405-1.299-0.546l-0.008-0.004l-0.242-0.074v0.001l-0.018-0.005
		l-0.244-0.069l-0.012-0.001l-0.012-0.004c-0.635-0.165-1.289-0.248-1.969-0.248v0.003h-0.008c-0.563,0.007-1.104,0.054-1.617,0.136
		v0.002c-0.52,0.084-1.016,0.205-1.484,0.366c-0.482,0.164-0.939,0.376-1.365,0.634c-0.43,0.258-0.83,0.564-1.205,0.916
		c-0.41,0.387-0.773,0.812-1.088,1.268c-0.313,0.458-0.576,0.949-0.793,1.472c-0.207,0.517-0.365,1.056-0.467,1.614
		c-0.1,0.537-0.148,1.094-0.146,1.662v0.039c0,0.578,0.051,1.142,0.148,1.685c0.096,0.541,0.24,1.052,0.436,1.53
		c0.197,0.488,0.459,0.96,0.775,1.412h0.002c0.32,0.453,0.697,0.887,1.131,1.295c0.563,0.543,1.164,0.979,1.799,1.306
		c0.119,0.06,0.246,0.122,0.381,0.179c0.137,0.062,0.268,0.115,0.385,0.158l0,0l0.01,0.003c0.459,0.166,0.943,0.292,1.461,0.38
		c0.49,0.084,1.018,0.129,1.57,0.139l0.057,0.003c0.463,0,0.92-0.034,1.367-0.104l0.053-0.007l0.217-0.039l0.031-0.005l0.023-0.004
		l0.201-0.043l0.055-0.012l0.027-0.006c0.451-0.104,0.895-0.252,1.328-0.438l0,0c0.08-0.035,0.168-0.075,0.252-0.116l0.008-0.004
		l0.186-0.089l0.051-0.022C163.654,110.216,163.5,107,163.5,106z"/>
	<path fill="#1D1C1A" d="M159.5,112"/>
</g>
<g id="cover">
</g>
<g id="cifry">
</g>
<g id="menu_x5F_bar">
</g>
<g id="grid" display="none">
</g>
</svg>
