<?xml version="1.0" encoding="utf-8"?>
<!-- Generator: Adobe Illustrator 16.0.0, SVG Export Plug-In . SVG Version: 6.00 Build 0)  -->
<!DOCTYPE svg PUBLIC "-//W3C//DTD SVG 1.1//EN" "http://www.w3.org/Graphics/SVG/1.1/DTD/svg11.dtd">
<svg version="1.1" id="Слой_1" xmlns="http://www.w3.org/2000/svg" xmlns:xlink="http://www.w3.org/1999/xlink" x="0px" y="0px"
	 width="41px" height="35.674px" viewBox="1.167 -1.337 41 35.674" enable-background="new 1.167 -1.337 41 35.674"
	 xml:space="preserve">
<g id="Шар_11">
</g>
<g id="contakt">
</g>
<g id="dialnict">
</g>
<g id="photo">
</g>
<g id="manegers">
</g>
<g id="istoria">
</g>
<g id="cinosti">
	<g>
		<path fill="#FFFFFF" d="M20.04,11.704L20.04,11.704c0.426,0.29,1.008,0.2,1.299-0.238l2.938-4.192
			c0.293-0.424,0.188-1.009-0.236-1.312l-0.9-0.625l-3.971,5.761L20.04,11.704z M1.167,20.414c0.568,1.204,1.826,2.027,3.07,2.158
			l7.768-11.077L8.922,9.337L1.167,20.414z M17.874,9.174C17.938,9.24,17.977,9.318,18.03,9.4c0.039,0.064,0.066,0.119,0.094,0.183
			c0.053,0.119,0.105,0.228,0.133,0.345c1.152-1.643,2.289-3.268,3.438-4.908c0,0-2.672,0.327-4.072-2.859
			c-0.293-0.201-0.598-0.409-0.889-0.608C12.709-1.268,8.874-1.852,5.54-0.938C5.366-0.887,4.995-0.764,4.663-0.659
			c-0.58,0.196-0.475,1.084,0.174,0.978c0.318-0.054,0.635-0.104,0.781-0.104c0.635-0.027,1.242-0.08,1.879,0.037
			c2.713,0.533,4.83,2.993,3.057,5.52c-0.477,0.674-1.43,2.013-1.416,2.024c0,0.015,4.023,2.792,4.01,2.819
			c-0.117,0.174,0.266-0.358,0.398-0.514c0.594-0.701,1.852-1.895,3.4-1.576c0.238,0.051,0.436,0.16,0.609,0.291
			c0.078,0.078,0.17,0.16,0.236,0.236C17.833,9.097,17.846,9.133,17.874,9.174L17.874,9.174z M33.167,24.337h-15v-8h15V24.337z
			 M42.167,34.337h-15v-8h15V34.337z M24.167,34.337h-15v-8h15V34.337z"/>
	</g>
</g>
<g id="strategia">
</g>
<g id="cover">
</g>
<g id="cifry">
</g>
<g id="menu_x5F_bar">
</g>
<g id="grid" display="none">
</g>
</svg>
