<?xml version="1.0" encoding="utf-8"?>
<!-- Generator: Adobe Illustrator 16.0.0, SVG Export Plug-In . SVG Version: 6.00 Build 0)  -->
<!DOCTYPE svg PUBLIC "-//W3C//DTD SVG 1.1//EN" "http://www.w3.org/Graphics/SVG/1.1/DTD/svg11.dtd">
<svg version="1.1" id="Слой_1" xmlns="http://www.w3.org/2000/svg" xmlns:xlink="http://www.w3.org/1999/xlink" x="0px" y="0px"
	 width="27.743px" height="52px" viewBox="21.757 11.5 27.743 52" enable-background="new 21.757 11.5 27.743 52"
	 xml:space="preserve">
<g id="Шар_11">
</g>
<g id="contakt">
</g>
<g id="dialnict">
</g>
<g id="photo">
</g>
<g id="manegers">
</g>
<g id="istoria">
</g>
<g id="cinosti">
	<g>
		<path fill="#FFFFFF" d="M34.084,24.625c2.503,0,4.29,1.019,4.305,1.028c0.071,0.042,0.153,0.06,0.226,0.06
			c0.24,0,0.438-0.197,0.438-0.438c0-0.087-0.025-0.168-0.068-0.236c-0.302-0.569-3.581-6.597-8.81-8.667
			c-0.885-0.352-1.754-0.529-2.582-0.529c-3.264,0-4.891,2.668-5.311,3.486c-0.748,1.456-0.694,3.083,0.148,4.464
			c0.953,1.562,2.733,2.531,4.649,2.531c0.949,0,1.889-0.231,2.795-0.686C31.212,24.966,32.627,24.625,34.084,24.625L34.084,24.625z
			"/>
		<path fill="#FFFFFF" d="M34.084,24.625"/>
		<path fill="#FFFFFF" d="M49.217,19.949c-0.229-0.443-1.11-1.892-2.88-1.892c-0.45,0-0.92,0.097-1.403,0.288
			c-2.913,1.153-4.709,4.573-4.784,4.719c-0.05,0.095-0.029,0.209,0.047,0.282c0.076,0.074,0.19,0.087,0.283,0.033
			c0.01-0.005,0.971-0.557,2.336-0.557c0.789,0,1.558,0.185,2.28,0.548c0.492,0.247,1.004,0.373,1.519,0.373
			c1.037,0,2.006-0.526,2.524-1.374C49.592,21.621,49.62,20.739,49.217,19.949L49.217,19.949z"/>
		<path fill="#FFFFFF" d="M39.327,21.517c0.023,0,0.052-0.004,0.076-0.013c0.102-0.033,0.168-0.13,0.164-0.237
			c-0.002-0.023-0.082-2.498,2.146-4.087c1.164-0.83,1.659-2.408,1.257-3.679c-0.343-1.087-1.246-2.001-2.36-2.001h-0.041
			c-1.473,0-3.133,1.019-3.376,3.259c-0.34,3.114,1.845,6.413,1.94,6.546C39.177,21.369,39.251,21.517,39.327,21.517L39.327,21.517z
			"/>
		<path fill="#FFFFFF" d="M47.5,59.511L45.629,59.5l-3.872-32h-6l-4,32H29.5v4h18V59.511z M42.829,51.423l-6.115-4.694l4.98-3.166
			L42.829,51.423z M41.174,39.966l-3.716-2.773l2.956-2.497L41.174,39.966z M37.474,29.5h2.166l0.385,2.574l-3.343,2.865
			L37.474,29.5z M36.071,39.051l3.863,2.883l-4.715,2.994L36.071,39.051z M34.757,48.15l6.342,4.867l-7.87,5.7L34.757,48.15z
			 M36.614,59.5l6.634-4.806L43.94,59.5H36.614z"/>
		<path fill="#FFFFFF" d="M36.614,59.131"/>
	</g>
</g>
<g id="strategia">
</g>
<g id="cover">
</g>
<g id="cifry">
</g>
<g id="menu_x5F_bar">
</g>
<g id="grid" display="none">
</g>
</svg>
