<?xml version="1.0" encoding="utf-8"?>
<!-- Generator: Adobe Illustrator 16.0.0, SVG Export Plug-In . SVG Version: 6.00 Build 0)  -->
<!DOCTYPE svg PUBLIC "-//W3C//DTD SVG 1.1//EN" "http://www.w3.org/Graphics/SVG/1.1/DTD/svg11.dtd">
<svg version="1.1" id="Слой_1" xmlns="http://www.w3.org/2000/svg" xmlns:xlink="http://www.w3.org/1999/xlink" x="0px" y="0px"
	 width="47.648px" height="47.64px" viewBox="26.852 22.86 47.648 47.64" enable-background="new 26.852 22.86 47.648 47.64"
	 xml:space="preserve">
<g id="Шар_11">
</g>
<g id="contakt">
	<path fill="#423D3C" d="M73.041,66.123l-3.391,3.394c-0.605,0.603-2.379,0.981-2.437,0.981
		c-10.729,0.092-21.056-4.121-28.645-11.711c-7.611-7.615-11.828-17.979-11.715-28.742c0,0,0.389-1.727,0.992-2.326l3.391-3.393
		c1.242-1.245,3.625-1.809,5.294-1.251l0.714,0.239c1.665,0.557,3.412,2.398,3.872,4.094l1.704,6.261
		c0.463,1.701-0.158,4.12-1.4,5.361l-2.262,2.264c2.221,8.231,8.679,14.687,16.907,16.917l2.267-2.265
		c1.244-1.247,3.664-1.867,5.358-1.407l6.263,1.711c1.694,0.467,3.535,2.205,4.094,3.867l0.238,0.723
		C74.84,62.504,74.281,64.887,73.041,66.123L73.041,66.123z"/>
</g>
<g id="dialnict">
</g>
<g id="photo">
</g>
<g id="manegers">
</g>
<g id="istoria">
</g>
<g id="cinosti">
</g>
<g id="strategia">
</g>
<g id="cover">
</g>
<g id="cifry">
</g>
<g id="menu_x5F_bar">
</g>
<g id="grid" display="none">
</g>
</svg>
