<?xml version="1.0" encoding="utf-8"?>
<!-- Generator: Adobe Illustrator 16.0.0, SVG Export Plug-In . SVG Version: 6.00 Build 0)  -->
<!DOCTYPE svg PUBLIC "-//W3C//DTD SVG 1.1//EN" "http://www.w3.org/Graphics/SVG/1.1/DTD/svg11.dtd">
<svg version="1.1" id="Слой_1" xmlns="http://www.w3.org/2000/svg" xmlns:xlink="http://www.w3.org/1999/xlink" x="0px" y="0px"
	 width="27px" height="39px" viewBox="26.5 18.5 27 39" enable-background="new 26.5 18.5 27 39" xml:space="preserve">
<g id="Шар_11">
</g>
<g id="contakt">
</g>
<g id="dialnict">
</g>
<g id="photo">
</g>
<g id="manegers">
</g>
<g id="istoria">
</g>
<g id="cinosti">
	<path fill="#FFFFFF" d="M30.5,55.5c0,0,0.078,2,3,2h13c2.924,0,3-2,3-2l3-27H27.583L30.5,55.5z M44.542,32.542
		c0-0.703,0.88-1.042,1.583-1.042c0.7,0,1.354,0.4,1.354,1.104L46.5,52.5c0,0.702-0.711,1.004-1.412,1.004S43.5,53.202,43.5,52.5
		L44.542,32.542z M38.583,32.458c0-0.703,0.715-0.833,1.417-0.833c0.7,0,1.458,0.214,1.458,0.917L41.5,52.5
		c0,0.702-0.795,1.004-1.495,1.004c-0.704,0-1.505-0.302-1.505-1.004L38.583,32.458z M35.5,32.542l1,19.958
		c0,0.702-0.879,1.002-1.582,1.002c-0.701,0-1.244-0.318-1.244-1.021l-1.216-20.022c0,0,0.885-0.939,1.584-0.875
		C34.958,31.667,35.5,32.542,35.5,32.542z M53.5,23.5h-7v-2c0-1.928-0.082-3-2-3h-9c-1.76,0-2,1.31-2,3v2h-7v3h27V23.5z M44.5,23.5
		h-9v-3h9V23.5z"/>
</g>
<g id="strategia">
</g>
<g id="cover">
</g>
<g id="cifry">
</g>
<g id="menu_x5F_bar">
</g>
<g id="grid" display="none">
</g>
</svg>
