<?xml version="1.0" encoding="utf-8"?>
<!-- Generator: Adobe Illustrator 16.0.0, SVG Export Plug-In . SVG Version: 6.00 Build 0)  -->
<!DOCTYPE svg PUBLIC "-//W3C//DTD SVG 1.1//EN" "http://www.w3.org/Graphics/SVG/1.1/DTD/svg11.dtd">
<svg version="1.1" id="Слой_1" xmlns="http://www.w3.org/2000/svg" xmlns:xlink="http://www.w3.org/1999/xlink" x="0px" y="0px"
	 width="50px" height="40px" viewBox="24.5 27.5 50 40" enable-background="new 24.5 27.5 50 40" xml:space="preserve">
<g id="Шар_11">
</g>
<g id="contakt">
	<g>
		<path fill="#423D3C" d="M74.5,59.5c0,1.171,0,4-0.908,4.716L57.869,45.962l15.555-15.293C74.5,31.5,74.5,33.19,74.5,34.5V59.5z
			 M50.5,49.5l20.576-20.974c-0.879-0.521-2.705-1.026-3.773-1.026H31.398c-1.07,0-3.506,0.153-4.719,1.026L48.5,49.5H50.5z
			 M56.5,48.5l-6,4h-2l-6-4l-15,18c0.947,0.643,1.756,1,2.953,1h37.793c1.197,0,2.309-0.357,3.254-1L56.5,48.5z M25.5,30.5
			c-1,1-1,2.69-1,4v26c0,0,0,3,1,4l15.33-18.538L25.5,30.5z"/>
	</g>
</g>
<g id="dialnict">
</g>
<g id="photo">
</g>
<g id="manegers">
</g>
<g id="istoria">
</g>
<g id="cinosti">
</g>
<g id="strategia">
</g>
<g id="cover">
</g>
<g id="cifry">
</g>
<g id="menu_x5F_bar">
</g>
<g id="grid" display="none">
</g>
</svg>
