<?xml version="1.0" encoding="utf-8"?>
<!-- Generator: Adobe Illustrator 16.0.0, SVG Export Plug-In . SVG Version: 6.00 Build 0)  -->
<!DOCTYPE svg PUBLIC "-//W3C//DTD SVG 1.1//EN" "http://www.w3.org/Graphics/SVG/1.1/DTD/svg11.dtd">
<svg version="1.1" id="Слой_1" xmlns="http://www.w3.org/2000/svg" xmlns:xlink="http://www.w3.org/1999/xlink" x="0px" y="0px"
	 width="54px" height="67.277px" viewBox="26.5 10.5 54 67.277" enable-background="new 26.5 10.5 54 67.277" xml:space="preserve">
<g id="Шар_11">
</g>
<g id="contakt">
	<path fill="#FFFFFF" d="M80.5,32.986"/>
</g>
<g id="dialnict">
	<path fill="#FFFFFF" d="M43.5,10.5c0,21.475-17,32.214-17,47c0,9.301,5.898,16.986,14.074,20.277
		C39.671,76.938,33.5,69.5,40.5,57.5c0.611,4.889,3.287,7.266,5.611,9.454c2.573-4.28,6.03-8.772,5.389-16.454
		c5.174,5.746,12,12.991,12,24c0,0.055-0.007,0.107-0.008,0.162C68.422,70.68,71.5,64.557,71.5,57.5
		C71.5,36.588,55.822,21.414,43.5,10.5z"/>
</g>
<g id="photo">
</g>
<g id="manegers">
</g>
<g id="istoria">
</g>
<g id="cinosti">
</g>
<g id="strategia">
</g>
<g id="cover">
</g>
<g id="cifry">
</g>
<g id="menu_x5F_bar">
</g>
<g id="grid" display="none">
</g>
</svg>
