<?xml version="1.0" encoding="utf-8"?>
<!-- Generator: Adobe Illustrator 16.0.0, SVG Export Plug-In . SVG Version: 6.00 Build 0)  -->
<!DOCTYPE svg PUBLIC "-//W3C//DTD SVG 1.1//EN" "http://www.w3.org/Graphics/SVG/1.1/DTD/svg11.dtd">
<svg version="1.1" id="Слой_1" xmlns="http://www.w3.org/2000/svg" xmlns:xlink="http://www.w3.org/1999/xlink" x="0px" y="0px"
	 width="41.958px" height="35.648px" viewBox="16.542 17.828 41.958 35.648" enable-background="new 16.542 17.828 41.958 35.648"
	 xml:space="preserve">
<g id="Шар_11">
</g>
<g id="contakt">
</g>
<g id="dialnict">
</g>
<g id="photo">
</g>
<g id="manegers">
</g>
<g id="istoria">
</g>
<g id="cinosti">
	<g>
		<path fill="#FFFFFF" d="M17.5,35.5h14l1.959-9.609c0.109-0.506,0.559-0.866,1.08-0.851c0.518,0.014,0.952,0.396,1.033,0.908
			L37.5,36.875l2-3.19c0.13-0.409,0.486-0.703,0.914-0.748c0.426-0.044,0.837-0.021,1.048,0.354L42.5,35.5h15
			c0.605-1,0.605-2.046,0.826-3.471c0.611-3.962-0.411-7.856-2.739-10.571c-2.063-2.405-4.991-3.63-8.478-3.63
			c-5.405,0-8.478,3.654-9.588,5.291c-1.11-1.636-4.182-5.255-9.588-5.255c-3.484,0-6.415,1.278-8.478,3.683
			c-2.328,2.715-3.352,6.706-2.739,10.668C16.922,33.543,16.955,34.387,17.5,35.5L17.5,35.5z"/>
		<path fill="#FFFFFF" d="M42.615,37.5c-0.387,0-0.924,0.48-1.115,0.141l-1-1.039l-2.488,5.569
			c-0.142,0.451-0.559,0.775-1.024,0.775c-0.027,0-0.053,0.011-0.08,0.01c-0.498-0.036-0.905-0.405-0.98-0.897L34.5,32.872
			l-1.237,4.108c-0.107,0.498-0.257,0.52-0.763,0.52h-14c2.555,4,7.181,6.164,10.343,8.037c1.548,0.918,3.012,1.883,4.03,2.711
			c3.759,3.066,4.103,4.66,4.115,4.725c0.034,0.27,0.26,0.504,0.534,0.504c0.275,0,0.508-0.19,0.531-0.467
			c0.004-0.016,0.297-1.557,4.116-4.674c1.017-0.828,2.481-1.884,4.031-2.802c3.088-1.83,7.741-4.034,10.299-8.034H42.615z"/>
	</g>
</g>
<g id="strategia">
</g>
<g id="cover">
</g>
<g id="cifry">
</g>
<g id="menu_x5F_bar">
</g>
<g id="grid" display="none">
</g>
</svg>
