<?xml version="1.0" encoding="utf-8"?>
<!-- Generator: Adobe Illustrator 16.0.0, SVG Export Plug-In . SVG Version: 6.00 Build 0)  -->
<!DOCTYPE svg PUBLIC "-//W3C//DTD SVG 1.1//EN" "http://www.w3.org/Graphics/SVG/1.1/DTD/svg11.dtd">
<svg version="1.1" id="Слой_1" xmlns="http://www.w3.org/2000/svg" xmlns:xlink="http://www.w3.org/1999/xlink" x="0px" y="0px"
	 width="42.428px" height="25.861px" viewBox="17.072 24.639 42.428 25.861" enable-background="new 17.072 24.639 42.428 25.861"
	 xml:space="preserve">
<g id="Шар_11">
</g>
<g id="contakt">
</g>
<g id="dialnict">
</g>
<g id="photo">
</g>
<g id="manegers">
</g>
<g id="istoria">
</g>
<g id="cinosti">
	<path fill="#FFFFFF" d="M34.577,33.208c-0.918,1.67-1.524,3.466-1.894,5.32c-1.428-2.684-3.638-5.261-5.743-6.334
		c1.555,2.973,3.832,6.4,5.523,8.689c-0.041,0.354,0.037,0.713,0.037,1.078v0.157v0.046v0.06v0.088c0,0.105,0,0.201,0,0.299v0.145
		v0.132v0.177v0.037v0.82c0,0.871-0.101,1.737-0.035,2.6c-2.637-2.567-7.458-4.78-10.684-4.644
		c3.515,2.278,8.148,4.708,10.658,5.646c0.066,0.64,0.127,1.276,0.212,1.903c-9.758,3.986-10.947-3.989-15.58-9.769
		c3.049-1.104,5.623-1.575,7.785-1.519c-0.675-2.933-0.282-6.582-0.87-10.164C29.442,28.884,32.798,30.726,34.577,33.208
		L34.577,33.208z M59.5,24.645c-4.672,13.08-1.352,28.054-24.335,24.667C33.042,34.725,38.322,24.357,59.5,24.645L59.5,24.645z
		 M53.082,30.99c-6.334,1.898-14.307,10.299-16.024,16.61C40.076,45.71,47.82,37.734,53.082,30.99L53.082,30.99z"/>
</g>
<g id="strategia">
</g>
<g id="cover">
</g>
<g id="cifry">
</g>
<g id="menu_x5F_bar">
</g>
<g id="grid" display="none">
</g>
</svg>
