<?xml version="1.0" encoding="utf-8"?>
<!-- Generator: Adobe Illustrator 16.0.0, SVG Export Plug-In . SVG Version: 6.00 Build 0)  -->
<!DOCTYPE svg PUBLIC "-//W3C//DTD SVG 1.1//EN" "http://www.w3.org/Graphics/SVG/1.1/DTD/svg11.dtd">
<svg version="1.1" id="Слой_1" xmlns="http://www.w3.org/2000/svg" xmlns:xlink="http://www.w3.org/1999/xlink" x="0px" y="0px"
	 width="34px" height="43px" viewBox="21.5 14.5 34 43" enable-background="new 21.5 14.5 34 43" xml:space="preserve">
<g id="Шар_11">
</g>
<g id="contakt">
</g>
<g id="dialnict">
</g>
<g id="photo">
</g>
<g id="manegers">
</g>
<g id="istoria">
</g>
<g id="cinosti">
	<g>
		<path fill="#FFFFFF" d="M55.5,54.5h-2v-22c0-0.914-1.087-2-2-2h-4c-0.814-3.763-3.829-6.291-8-7v-3h9v-6h-11v9
			c-4.171,0.606-7.29,3.237-8,7h-4c-0.913,0-2,1.086-2,2v22c0,0-1.973-0.002-2,0v3h34V54.5z M33.5,52.5h-6v-4h6V52.5z M33.5,45.5h-6
			v-4h6V45.5z M33.5,38.5h-6v-4h6V38.5z M41.5,52.5h-6v-4h6V52.5z M41.5,45.5h-6v-4h6V45.5z M41.5,38.5h-6v-4h6V38.5z M49.5,52.5h-6
			v-4h6V52.5z M49.5,45.5h-6v-4h6V45.5z M49.5,38.5h-6v-4h6V38.5z"/>
		<path fill="#FFFFFF" d="M27.416,33.936"/>
	</g>
</g>
<g id="strategia">
</g>
<g id="cover">
</g>
<g id="cifry">
</g>
<g id="menu_x5F_bar">
</g>
<g id="grid" display="none">
</g>
</svg>
