<?xml version="1.0" encoding="utf-8"?>
<!-- Generator: Adobe Illustrator 16.0.0, SVG Export Plug-In . SVG Version: 6.00 Build 0)  -->
<!DOCTYPE svg PUBLIC "-//W3C//DTD SVG 1.1//EN" "http://www.w3.org/Graphics/SVG/1.1/DTD/svg11.dtd">
<svg version="1.1" id="Слой_1" xmlns="http://www.w3.org/2000/svg" xmlns:xlink="http://www.w3.org/1999/xlink" x="0px" y="0px"
	 width="44.035px" height="45.395px" viewBox="18.5 13.5 44.035 45.395" enable-background="new 18.5 13.5 44.035 45.395"
	 xml:space="preserve">
<g id="Шар_11">
</g>
<g id="contakt">
</g>
<g id="dialnict">
</g>
<g id="photo">
</g>
<g id="manegers">
</g>
<g id="istoria">
</g>
<g id="cinosti">
	<path fill="#FFFFFF" d="M24.529,48.797c-0.582-0.078-1.131,0.33-1.215,0.928l-0.557,3.988c-0.083,0.594,0.328,1.146,0.915,1.232
		c0.052,0.008,0.101,0.012,0.151,0.012c0.527,0,0.988-0.395,1.063-0.938l0.558-3.99C25.525,49.434,25.117,48.881,24.529,48.797
		L24.529,48.797z M30.293,48.797c-0.582-0.086-1.131,0.328-1.214,0.928l-1.112,7.928c-0.081,0.596,0.326,1.15,0.915,1.232
		c0.052,0.01,0.1,0.01,0.151,0.01c0.527,0,0.988-0.393,1.063-0.934l1.112-7.932C31.291,49.436,30.883,48.881,30.293,48.797
		L30.293,48.797z M36.263,48.797c-0.587-0.086-1.133,0.328-1.214,0.928l-1.112,7.928c-0.083,0.596,0.325,1.15,0.913,1.232
		c0.05,0.01,0.101,0.01,0.151,0.01c0.526,0,0.987-0.393,1.064-0.934l1.112-7.932C37.259,49.436,36.852,48.881,36.263,48.797
		L36.263,48.797z M42.025,48.797c-0.584-0.078-1.133,0.33-1.213,0.928l-0.559,3.988c-0.083,0.594,0.325,1.146,0.915,1.232
		c0.052,0.008,0.103,0.012,0.151,0.012c0.527,0,0.986-0.395,1.063-0.938l0.558-3.99C43.021,49.434,42.613,48.881,42.025,48.797
		L42.025,48.797z M45.711,18.5h0.006c0.594,0,1.07-0.375,1.068-0.979l-0.021-2.999c-0.004-0.597-0.48-1.021-1.072-1.021h-0.006
		c-0.596,0.004-1.074,0.496-1.069,1.1l0.021,2.935C44.641,18.137,45.119,18.5,45.711,18.5L45.711,18.5z M61.459,30.5h-0.008
		l-3.016,0.236c-0.597,0.004-1.074,0.787-1.069,1.39c0.005,0.599,0.483,1.374,1.075,1.374h0.007l3.018-0.205
		c0.593-0.004,1.071-0.802,1.069-1.405C62.529,31.292,62.051,30.5,61.459,30.5L61.459,30.5z M55.334,22.638
		c0.275,0,0.555-0.106,0.766-0.325l2.119-2.176c0.416-0.427,0.411-1.118-0.011-1.54s-1.101-0.421-1.519,0.008l-2.121,2.179
		c-0.418,0.429-0.412,1.118,0.01,1.54C54.787,22.532,55.061,22.638,55.334,22.638L55.334,22.638z M34.57,22.312
		c0.211,0.219,0.488,0.325,0.766,0.325c0.273,0,0.545-0.105,0.756-0.315c0.422-0.422,0.426-1.111,0.008-1.54l-2.118-2.179
		c-0.419-0.429-1.099-0.43-1.521-0.008c-0.422,0.422-0.426,1.113-0.009,1.54L34.57,22.312z M54.914,40.17
		c-0.416-0.431-1.1-0.435-1.52-0.012c-0.424,0.425-0.427,1.113-0.008,1.541l2.118,2.18c0.211,0.217,0.488,0.322,0.765,0.322
		c0.273,0,0.547-0.102,0.756-0.313c0.424-0.422,0.427-1.111,0.01-1.541L54.914,40.17z M23.033,45.5
		c-2.908,0-4.533-1.849-4.533-4.604c0-2.409,1.611-4.399,3.916-4.955c0.295-0.07,0.546-0.221,0.693-0.489
		c0.146-0.27,0.174-0.567,0.08-0.858c-0.136-0.402-0.204-0.817-0.204-1.25c0-2.178,1.75-3.947,3.9-3.947
		c1.032,0,2.005,0.408,2.741,1.145c0.251,0.249,0.606,0.361,0.949,0.296c0.347-0.063,0.641-0.297,0.786-0.62
		c1.071-2.396,3.442-3.945,6.038-3.945c3.656,0,6.628,3.014,6.628,6.717c0,0.338-0.092,1.047-0.151,1.441
		c-0.088,0.568,0.274,1.106,0.824,1.233c2.307,0.526,3.981,2.488,3.981,4.887c0,2.855-1.836,4.95-4.649,4.95H23.033L23.033,45.5z
		 M55.439,30.579c0-5.328-4.318-9.646-9.646-9.646c-2.745,0-5.225,1.147-6.981,2.989c0.63,0.172,8.693,1.929,7.278,9.835
		c2.262,0.651,3.68,2.034,4.945,4.919C53.688,36.957,55.439,33.973,55.439,30.579z"/>
</g>
<g id="strategia">
</g>
<g id="cover">
</g>
<g id="cifry">
</g>
<g id="menu_x5F_bar">
</g>
<g id="grid" display="none">
</g>
</svg>
